<?xml version="1.0" standalone="no"?><!DOCTYPE svg PUBLIC "-//W3C//DTD SVG 1.1//EN" "http://www.w3.org/Graphics/SVG/1.1/DTD/svg11.dtd"><svg t="1628767644599" class="icon" viewBox="0 0 1024 1024" version="1.1" xmlns="http://www.w3.org/2000/svg" p-id="2868" width="32" height="32" xmlns:xlink="http://www.w3.org/1999/xlink"><defs><style type="text/css"></style></defs><path d="M216.02784 554.9632h578.4896v103.7888H216.02784z" fill="#EE6A54" p-id="2869"></path><path d="M794.52384 668.352h-578.496a9.6 9.6 0 0 1-9.6-9.6V554.9632a9.6 9.6 0 0 1 9.6-9.6h578.496a9.6 9.6 0 0 1 9.6 9.6v103.7888a9.6 9.6 0 0 1-9.6 9.6z m-568.896-19.2h559.296V564.5632h-559.296z" p-id="2870"></path><path d="M209.05824 532.6592c-3.4112 3.872-41.7536 26.1312-37.4976 39.68S196.28384 614.4 213.32064 606.8224s37.4976-30.6112 60.5056-25.7728 27.264 25.9968 48.576 27.0336 23.008-28.9664 39.2-28 28.9728 24.4416 49.4272 26.7392 18.752-27.712 48.576-26.7392 26.4576 21.3312 62.1696 25.248 16.4096-27.9488 47.424-25.632 18.2272 27.7248 46.3552 27.1232 23.008-31.5776 53.6832-31.5776 16.192 29.28 44.3136 31.5776 30.6816-20.928 47.7248-23.8336 6.816 23.1424 38.3488 25.12 36.64-11.5712 51.9808-28.0256-28.1216-37.3696-34.944-42.88-15.0272-9.5488-17.0368-8.416" fill="#B1E160" p-id="2871"></path><path d="M805.30784 617.8944c-1.9968 0-4.0896-0.064-6.2848-0.2048a35.8656 35.8656 0 0 1-33.7536-21.8688c-0.6016-1.152-1.376-2.6368-1.92-3.4304a7.36 7.36 0 0 0-0.4608 0.064c-3.712 0.6336-6.496 3.2512-11.0784 7.8272a44.9536 44.9536 0 0 1-39.04 16.1088 31.9552 31.9552 0 0 1-28.6848-21.28c-3.5392-7.2576-5.0112-10.2656-14.848-10.2656-11.0272 0-14.8672 4.9536-20.6848 12.4544-6.1248 7.904-14.5216 18.7264-32.7936 19.1232a30.4896 30.4896 0 0 1-30.272-16.7232 17.696 17.696 0 0 0-17.0048-10.4256c-8.4032-0.6272-9.1968 1.0304-12.1856 7.1872-3.8528 7.9232-10.2912 21.1456-35.5712 18.4192a67.3728 67.3728 0 0 1-38.5152-15.9936 33.1136 33.1136 0 0 0-22.912-9.2032c-11.328-0.416-15.5712 4.8192-21.4208 12-5.6064 6.8864-13.28 16.3392-27.9168 14.6816a63.0144 63.0144 0 0 1-32.2112-16.704 38.2912 38.2912 0 0 0-16.7168-9.9904c-2.0672-0.1472-4.5824 3.2832-8.2304 8.4928-5.6576 8.0896-14.2336 20.3776-30.8672 19.5072a45.952 45.952 0 0 1-30.2976-15.1808 40.768 40.768 0 0 0-19.7824-12.0448c-11.936-2.4896-24.4224 5.9968-36.4864 14.208a121.4592 121.4592 0 0 1-18.144 10.944 25.9392 25.9392 0 0 1-21.664-0.608c-15.6992-7.0848-29.344-27.648-33.152-39.7632-4.9664-15.8016 14.176-30.9824 34.208-45.184 2.1888-1.5488 4.9088-3.4752 5.5808-4.0832a9.376 9.376 0 0 1 13.376-0.6784 9.8048 9.8048 0 0 1 0.6976 13.728 51.9616 51.9616 0 0 1-8.5504 6.7008c-20.7424 14.7008-26.112 21.2992-26.8352 24.256 2.848 8.352 13.0112 23.2128 22.5728 27.52a6.6816 6.6816 0 0 0 5.9648 0.5696 109.1008 109.1008 0 0 0 15.136-9.2608c13.9456-9.504 31.296-21.3376 51.2448-17.1328a58.9952 58.9952 0 0 1 28.7808 16.6592c6.8608 6.2656 11.0912 9.824 18.2848 10.176 5.5168 0.32 8.544-3.2512 14.2016-11.3344 5.1392-7.36 12.1216-17.4528 25.1072-16.6592 10.8416 0.64 19.3792 7.552 27.648 14.2336a47.3792 47.3792 0 0 0 22.272 12.544c3.7888 0.4416 5.568-1.1904 10.8928-7.7248a42.112 42.112 0 0 1 36.928-19.072 51.904 51.904 0 0 1 34.0672 13.2288 48.9152 48.9152 0 0 0 28.832 12.0704c11.8208 1.2992 13.0176-1.152 16.2048-7.712 3.5456-7.3088 9.4848-19.5968 30.8928-17.9456a36.3712 36.3712 0 0 1 31.744 19.2384c3.7376 5.856 5.1648 8.0576 13.6832 7.8592 8.736-0.192 12.0128-3.9232 18.0352-11.6928 6.5088-8.384 15.424-19.8848 35.8592-19.8848a31.552 31.552 0 0 1 32.1024 21.0432c3.3152 6.7968 4.832 9.9008 12.992 10.56 12.3008 1.024 17.1776-3.84 23.9168-10.56a39.1232 39.1232 0 0 1 21.4144-13.1648c14.3744-2.4448 19.744 7.8848 22.6304 13.4272a17.4016 17.4016 0 0 0 17.9328 11.584c21.6064 1.3568 26.8224-4.7552 37.2352-16.9216 2.2016-2.5728 4.5248-5.2864 7.1232-8.0768 0.7168-0.768 0.6848-1.024 0.6656-1.1264-0.896-6.6496-20.3456-18.624-26.7328-22.5536a84.5184 84.5184 0 0 1-7.8848-5.184 43.456 43.456 0 0 0-10.2144-6.3104 9.6 9.6 0 0 1-5.5104-17.9328c8.32-4.7104 20.992 3.8144 27.7952 9.312 0.768 0.6272 3.488 2.2912 5.8752 3.7632 16.992 10.464 33.7472 21.888 35.6992 36.3328a20.1152 20.1152 0 0 1-5.6512 16.8c-2.4 2.5728-4.544 5.0816-6.5728 7.4624-10.4512 12.2112-20.3712 23.7952-46.7456 23.7952z m-41.44-25.5296z" p-id="2872"></path><path d="M798.51744 457.6128a16.0576 16.0576 0 0 1 1.1328 5.9904v58.4576a14.3872 14.3872 0 0 1-13.3504 15.1616H226.69664a14.3872 14.3872 0 0 1-13.3504-15.168v-58.4512a17.4912 17.4912 0 0 1 1.0688-5.9904" fill="#C84343" p-id="2873"></path><path d="M786.29984 546.8224H226.69664a23.936 23.936 0 0 1-22.9504-24.768V463.616a26.9184 26.9184 0 0 1 1.6576-9.2992 9.6 9.6 0 0 1 18.0224 6.6112 7.8912 7.8912 0 0 0-0.48 2.688v58.4512c0 3.1808 1.984 5.5616 3.7504 5.5616h559.6032c1.7728 0 3.7504-2.3808 3.7504-5.568V463.616a6.4896 6.4896 0 0 0-0.4352-2.4 9.6 9.6 0 1 1 17.8048-7.1872 25.8368 25.8368 0 0 1 1.8304 9.5872v58.4512a23.936 23.936 0 0 1-22.9504 24.7616z" p-id="2874"></path><path d="M337.73024 509.6832L235.31744 384.1728l159.904-25.9392-57.4912 151.4496z" fill="#ECE556" p-id="2875"></path><path d="M337.73024 519.2832a9.5936 9.5936 0 0 1-7.4368-3.5328l-102.4128-125.504a9.6 9.6 0 0 1 5.9008-15.552l159.904-25.9328a9.6 9.6 0 0 1 10.5088 12.8768l-57.4848 151.456a9.6 9.6 0 0 1-7.4368 6.0672 9.4784 9.4784 0 0 1-1.536 0.128zM253.26944 390.9824L334.65184 490.7328 380.34784 370.368z" p-id="2876"></path><path d="M340.43104 530.624a9.6 9.6 0 0 1-7.6672-3.8272l-55.4752-73.6448a9.6 9.6 0 0 1 15.3408-11.5456l43.5648 57.8368 13.3184-50.5216a9.6 9.6 0 0 1 18.5664 4.896l-18.368 69.6576a9.6064 9.6064 0 0 1-9.28 7.1488z" p-id="2877"></path><path d="M866.93984 359.7888c0 127.2 0 101.7152-357.9136 99.5328-358.0032-2.176-357.92 10.9056-357.92-99.5328 0-105.4848 160.2496-163.0848 357.92-163.0848s357.92 65.0112 357.92 163.0848z" fill="#ECBA56" p-id="2878"></path><path d="M747.61824 472.4416c-24.064 0-52.9472-0.5888-87.808-1.2992-40.6208-0.832-91.168-1.856-150.8416-2.2208-37.9136-0.2304-71.808-0.288-102.112-0.3456-255.3792-0.448-265.344-0.4672-265.344-108.7104 0-104.9792 144.256-172.7616 367.52-172.7616 212.9472 0 367.5136 72.6272 367.5136 172.6848 0 46.144 0 73.9968-17.8944 91.5328-17.3312 16.9792-47.2064 21.12-111.0336 21.12z m-238.592-266.1376c-208.3392 0-348.32 61.6832-348.32 153.4848 0 51.296 1.1776 67.9552 25.8432 77.5104 30.304 11.744 93.8112 11.8592 220.3392 12.0768 30.3296 0.0576 64.256 0.1152 102.1952 0.3456 59.808 0.3648 110.432 1.3952 151.1104 2.2272 114.6048 2.3296 166.912 3.392 185.024-14.336 12.128-11.8976 12.128-36.7104 12.128-77.824 0-87.5008-149.7472-153.4848-348.32-153.4848zM786.29984 668.352H226.69664a23.936 23.936 0 0 1-22.9504-24.768v-36.7616a9.6 9.6 0 0 1 19.2 0v36.768c0 3.1872 1.984 5.568 3.7504 5.568h559.6032c1.7728 0 3.7504-2.3808 3.7504-5.568v-35.4816a9.6 9.6 0 0 1 19.2 0v35.4816a23.936 23.936 0 0 1-22.9504 24.7616z" p-id="2879"></path><path d="M160.34144 665.056m25.4144 0l656.6272 0q25.4144 0 25.4144 25.4144l0 9.376q0 25.4144-25.4144 25.4144l-656.6272 0q-25.4144 0-25.4144-25.4144l0-9.376q0-25.4144 25.4144-25.4144Z" fill="#B1E160" p-id="2880"></path><path d="M842.38304 734.8608H185.75584a35.0528 35.0528 0 0 1-35.008-35.008v-9.3824a35.0528 35.0528 0 0 1 35.008-35.008h656.6272a35.0528 35.0528 0 0 1 35.0144 35.008v9.3824a35.0528 35.0528 0 0 1-35.008 35.008z m-656.6272-60.2048a15.8272 15.8272 0 0 0-15.808 15.808v9.3888a15.8272 15.8272 0 0 0 15.808 15.808h656.6272a15.8336 15.8336 0 0 0 15.8144-15.808v-9.3824a15.8336 15.8336 0 0 0-15.808-15.808z" p-id="2881"></path><path d="M201.39104 727.2m12.8 0l589.6768 0q12.8 0 12.8 12.8l0 24.7296q0 12.8-12.8 12.8l-589.6768 0q-12.8 0-12.8-12.8l0-24.7296q0-12.8 12.8-12.8Z" fill="#C84343" p-id="2882"></path><path d="M803.86784 787.1232H214.19104a22.4256 22.4256 0 0 1-22.4-22.4v-24.7232a22.4256 22.4256 0 0 1 22.4-22.4h589.6768a22.4256 22.4256 0 0 1 22.4 22.4v24.7232a22.4256 22.4256 0 0 1-22.4 22.4z m-589.6768-50.3232a3.2448 3.2448 0 0 0-3.2 3.2v24.7232a3.2448 3.2448 0 0 0 3.2 3.2h589.6768a3.2448 3.2448 0 0 0 3.2-3.2v-24.7232a3.2448 3.2448 0 0 0-3.2-3.2zM338.58784 329.9776a11.8592 11.8592 0 1 1 11.5904-11.8592 11.7376 11.7376 0 0 1-11.584 11.8592z m0-19.2a7.3472 7.3472 0 1 0 7.616 7.3408 7.488 7.488 0 0 0-7.616-7.3408zM491.57984 312.8768a11.8592 11.8592 0 1 1 11.5904-11.8592 11.7376 11.7376 0 0 1-11.584 11.8592z m0-19.2a7.3472 7.3472 0 1 0 7.616 7.3408 7.488 7.488 0 0 0-7.616-7.3408zM262.17824 385.792a11.8592 11.8592 0 1 1 11.584-11.8592 11.7376 11.7376 0 0 1-11.584 11.8528z m0-19.2a7.3472 7.3472 0 1 0 7.616 7.3408 7.488 7.488 0 0 0-7.616-7.3472zM398.81184 390.304a11.8592 11.8592 0 1 1 11.584-11.8592 11.7376 11.7376 0 0 1-11.584 11.8592z m0-19.2a7.3472 7.3472 0 1 0 7.616 7.3408 7.488 7.488 0 0 0-7.616-7.3408zM595.38784 394.8224a11.8592 11.8592 0 1 1 11.584-11.8592 11.7376 11.7376 0 0 1-11.584 11.8592z m0-19.2a7.3472 7.3472 0 1 0 7.6032 7.3408 7.488 7.488 0 0 0-7.6096-7.3408zM752.75104 397.0816a11.8592 11.8592 0 1 1 11.584-11.8592 11.7376 11.7376 0 0 1-11.584 11.8592z m0-19.2a7.3472 7.3472 0 1 0 7.616 7.3408 7.488 7.488 0 0 0-7.616-7.3408zM626.62624 310.6176a11.8592 11.8592 0 1 1 11.5904-11.8592 11.7376 11.7376 0 0 1-11.584 11.8592z m0-19.2a7.3472 7.3472 0 1 0 7.616 7.3408 7.488 7.488 0 0 0-7.616-7.3408z" p-id="2883"></path><path d="M176.30944 777.5296h677.3696a28.3264 28.3264 0 0 1 28.32 28.32v24.2112a41.664 41.664 0 0 1-41.664 41.664H189.64704a41.664 41.664 0 0 1-41.664-41.664v-24.2112a28.3264 28.3264 0 0 1 28.3264-28.32z" fill="#ECBA56" p-id="2884"></path><path d="M840.33504 881.3312H189.64704a51.328 51.328 0 0 1-51.264-51.264v-24.2176a37.9648 37.9648 0 0 1 37.9264-37.9264h677.3696a37.9648 37.9648 0 0 1 37.92 37.9264v24.2112a51.328 51.328 0 0 1-51.264 51.2704z m-664.0256-94.208a18.7456 18.7456 0 0 0-18.7264 18.7264v24.2112a32.1088 32.1088 0 0 0 32.064 32.064h650.688a32.1088 32.1088 0 0 0 32.064-32.064v-24.2112a18.7456 18.7456 0 0 0-18.72-18.7264z" p-id="2885"></path><path d="M189.46144 397.0816h-0.2048a9.6 9.6 0 0 1-9.3952-9.792c1.8048-87.2064 61.728-116.64 64.2816-117.8496a9.6 9.6 0 0 1 8.256 17.3312c-2.24 1.0944-51.7952 26.1184-53.344 100.9088a9.6 9.6 0 0 1-9.6 9.4016z" fill="#FFFFFF" p-id="2886"></path></svg>