<?xml version="1.0" standalone="no"?><!DOCTYPE svg PUBLIC "-//W3C//DTD SVG 1.1//EN" "http://www.w3.org/Graphics/SVG/1.1/DTD/svg11.dtd"><svg t="1628851721163" class="icon" viewBox="0 0 1024 1024" version="1.1" xmlns="http://www.w3.org/2000/svg" p-id="6077" xmlns:xlink="http://www.w3.org/1999/xlink" width="32" height="32"><defs><style type="text/css"></style></defs><path d="M505.976471 930.635294c0 51.2-75.294118 93.364706-168.658824 93.364706s-168.658824-42.164706-168.658823-93.364706c0-51.2 75.294118-93.364706 168.658823-93.364706s168.658824 42.164706 168.658824 93.364706z m180.705882-93.364706c-93.364706 0-168.658824 42.164706-168.658824 93.364706 0 51.2 75.294118 93.364706 168.658824 93.364706s168.658824-42.164706 168.658823-93.364706c3.011765-51.2-72.282353-93.364706-168.658823-93.364706z" fill="#D1E8FF" p-id="6078"></path><path d="M888.470588 518.023529s-12.047059-12.047059-27.105882-24.094117v-117.458824C861.364706 183.717647 704.752941 0 512 0 364.423529 0 162.635294 102.4 162.635294 373.458824v117.458823c-15.058824 12.047059-27.105882 24.094118-27.105882 24.094118-24.094118 33.129412-75.294118 90.352941-75.294118 171.670588S84.329412 783.058824 90.352941 783.058824c9.035294 0 36.141176-6.023529 72.282353-60.235295 48.188235 153.6 183.717647 265.035294 349.364706 265.035295 162.635294 0 301.176471-111.435294 349.364706-268.047059 36.141176 54.211765 63.247059 60.235294 72.282353 60.235294 9.035294 0 30.117647-15.058824 30.117647-96.376471s-54.211765-132.517647-75.294118-165.647059z" fill="#D1E8FF" p-id="6079"></path><path d="M256 575.247059c-3.011765 21.082353-3.011765 39.152941-3.011765 60.235294 0 186.729412 117.458824 310.211765 265.035294 310.211765s265.035294-120.470588 265.035295-310.211765c0-21.082353 0-39.152941-3.011765-60.235294H256zM421.647059 156.611765c-39.152941 0-69.270588 42.164706-69.270588 93.364706 0 51.2 30.117647 93.364706 69.270588 93.364705s69.270588-42.164706 69.270588-93.364705-33.129412-93.364706-69.270588-93.364706z" fill="#D1E8FF" p-id="6080"></path><path d="M430.682353 289.129412c-15.058824 0-24.094118-18.070588-24.094118-39.152941 0-21.082353 12.047059-39.152941 24.094118-39.152942 15.058824 0 24.094118 18.070588 24.094118 39.152942 3.011765 24.094118-9.035294 39.152941-24.094118 39.152941zM605.364706 156.611765c-39.152941 0-69.270588 42.164706-69.270588 93.364706 0 51.2 30.117647 93.364706 69.270588 93.364705 39.152941 0 69.270588-42.164706 69.270588-93.364705 0-51.2-30.117647-93.364706-69.270588-93.364706z" fill="#D1E8FF" p-id="6081"></path><path d="M593.317647 289.129412c-15.058824 0-24.094118-18.070588-24.094118-39.152941 0-21.082353 12.047059-39.152941 24.094118-39.152942 15.058824 0 24.094118 18.070588 24.094118 39.152942 0 24.094118-12.047059 39.152941-24.094118 39.152941z" fill="#D1E8FF" p-id="6082"></path><path d="M234.917647 557.176471c-6.023529 30.117647-21.082353 141.552941-12.047059 174.682353 6.023529 30.117647 33.129412 27.105882 72.282353 27.105882 36.141176 0 81.317647 9.035294 81.317647-36.141177s0-105.411765 12.047059-138.541176c9.035294-36.141176-153.6-27.105882-153.6-27.105882z" fill="#00AAEE" p-id="6083"></path><path d="M228.894118 623.435294l150.588235 48.188235c0-36.141176 3.011765-72.282353 9.035294-90.352941 12.047059-33.129412-150.588235-24.094118-150.588235-24.094117-3.011765 12.047059-6.023529 36.141176-9.035294 66.258823z" fill="#1C9DE5" p-id="6084"></path><path d="M512 475.858824c117.458824 0 210.823529-42.164706 210.823529-69.270589 0-21.082353-93.364706-39.152941-210.823529-39.152941s-210.823529 18.070588-210.823529 39.152941c0 27.105882 93.364706 69.270588 210.823529 69.270589z" fill="#D1E8FF" p-id="6085"></path><path d="M515.011765 502.964706s135.529412 0 240.941176-42.164706c108.423529-45.176471 105.411765-51.2 117.458824-51.2 12.047059 0 24.094118 18.070588 30.117647 45.176471 6.023529 30.117647 12.047059 54.211765-12.047059 69.270588-24.094118 15.058824-189.741176 108.423529-373.458824 108.423529h-9.035294c-183.717647 0-349.364706-96.376471-373.458823-108.423529s-18.070588-39.152941-12.047059-69.270588c6.023529-30.117647 21.082353-45.176471 30.117647-45.176471 12.047059 0 12.047059 6.023529 117.458824 51.2s243.952941 42.164706 243.952941 42.164706z" fill="#00AAEE" p-id="6086"></path></svg>