<?xml version="1.0" standalone="no"?><!DOCTYPE svg PUBLIC "-//W3C//DTD SVG 1.1//EN" "http://www.w3.org/Graphics/SVG/1.1/DTD/svg11.dtd"><svg t="1628849470465" class="icon" viewBox="0 0 1024 1024" version="1.1" xmlns="http://www.w3.org/2000/svg" p-id="4566" xmlns:xlink="http://www.w3.org/1999/xlink" width="32" height="32"><defs><style type="text/css"></style></defs><path d="M512 1024C229.2224 1024 0 794.7776 0 512S229.2224 0 512 0s512 229.2224 512 512-229.2224 512-512 512z m-229.12-443.6224c18.176-15.6416 27.264-36.1472 27.264-61.44 0-20.352-6.016-36.864-17.9456-49.6128-11.9808-12.7232-27.9296-20.224-47.872-22.5792v-0.8192c15.9744-5.2224 28.4672-14.0032 37.5552-26.3936 9.0624-12.3648 13.5936-26.9312 13.5936-43.7248 0-20.0704-7.4752-36.352-22.4768-48.896-15.0016-12.544-35.2512-18.7648-60.8256-18.7648H128.0256V603.904h86.1952c27.648 0 50.5344-7.8336 68.6848-23.5264z m-120.2176-240.896H202.496c37.8112 0 56.704 14.3872 56.704 43.1104 0 16.64-5.4272 29.5168-16.2816 38.656-10.8544 9.1648-25.7792 13.7216-44.7488 13.7216H162.6624v-95.488z m0 126.6432H202.496c47.5648 0 71.3472 17.4848 71.3472 52.3776 0 16.7936-5.6064 29.9776-16.7936 39.6032-11.2384 9.6256-26.9824 14.4384-47.36 14.4384H162.688v-106.4192z m202.9568-158.592V603.904h33.792V307.5328h-33.792z m267.1872 266.368c19.0208-20.2752 28.5696-47.2576 28.5696-80.9216 0-34.4064-8.8576-61.2864-26.496-80.64-17.6896-19.4048-42.24-29.0816-73.728-29.0816-33.024 0-59.2128 9.984-78.592 29.9008-19.3792 19.968-29.0816 47.6416-29.0816 83.1232 0 32.5632 9.3184 58.752 27.9552 78.464 18.6112 19.712 43.5456 29.5936 74.752 29.5936 32.0256 0 57.5744-10.1632 76.6208-30.4384z m-144.6912-78.8992c0-25.984 6.3232-46.3616 18.9696-61.1328 12.6464-14.7968 29.824-22.1952 51.5584-22.1952 21.8624 0 38.6816 7.168 50.432 21.4528 11.776 14.3104 17.6384 34.6624 17.6384 61.056 0 26.112-5.888 46.2592-17.664 60.416-11.7248 14.1568-28.544 21.248-50.4064 21.248-21.4528 0-38.5792-7.1936-51.3536-21.632-12.8-14.464-19.1744-34.176-19.1744-59.2128z m407.5264 87.4496v-194.2528h-33.8176v29.2608h-0.8192c-13.7728-22.8096-34.8672-34.2272-63.3344-34.2272-29.952 0-53.5808 10.5984-70.8352 31.744-17.2544 21.1968-25.856 49.7152-25.856 85.6064 0 31.616 7.9872 56.832 24.0128 75.5968 16.0256 18.7648 37.1712 28.16 63.4112 28.16 32.3328 0 56.5248-13.4912 72.6272-40.448h0.8192v23.1168c0 21.6576-3.9936 39.0656-12.0064 52.224l-17.0752 18.0736-0.7424 0.512c-5.3504 3.3024-43.1872 24.4992-97.3824-0.4096-58.5728-26.9568-141.8752-29.184-162.4064 41.3952l24.1664 18.5856s0-33.2032 37.4272-46.4896c27.8016-9.856 58.0608 2.6112 81.9968 12.8768v0.128c6.912 3.5072 14.1824 6.3744 21.8624 8.6272l0.384 0.1024a168.448 168.448 0 0 0 46.2336 6.144c74.2144 0 111.3344-38.784 111.3344-116.3264z m-51.6608-26.8032c-11.904 13.4656-27.3408 20.224-46.3104 20.224-18.688 0-33.7152-7.0656-45.056-21.1712-11.3408-14.08-17.024-32.8704-17.024-56.3968 0-27.3664 5.888-48.64 17.7408-63.8208 11.8272-15.1808 28.16-22.784 49.0752-22.784 16.9216 0 31.0272 5.9648 42.3936 17.92a60.416 60.416 0 0 1 17.024 43.1104v31.1552c0 21.0176-5.9648 38.272-17.8432 51.7632z" fill="#62AFFE" p-id="4567"></path></svg>