<?xml version="1.0" standalone="no"?><!DOCTYPE svg PUBLIC "-//W3C//DTD SVG 1.1//EN" "http://www.w3.org/Graphics/SVG/1.1/DTD/svg11.dtd"><svg t="1628853247004" class="icon" viewBox="0 0 1024 1024" version="1.1" xmlns="http://www.w3.org/2000/svg" p-id="10740" xmlns:xlink="http://www.w3.org/1999/xlink" width="32" height="32"><defs><style type="text/css"></style></defs><path d="M512 512m-486.4 0a486.4 486.4 0 1 0 972.8 0 486.4 486.4 0 1 0-972.8 0Z" fill="#FF2742" p-id="10741"></path><path d="M139.5712 446.8736c3.584 34.8672 1.6384 70.144-5.7856 104.3456 0 8.704-2.8672 14.4896-5.7856 23.1936 0 0 8.704 17.408 28.9792 49.2544 37.6832-31.8464 34.816-176.7936 34.816-176.7936h-52.224z m231.8848 107.264c-5.8368-37.6832-8.704-72.448-5.8368-104.3456H313.4976s-5.8368 144.896 34.7648 176.7936c17.408-34.816 28.9792-49.2544 28.9792-49.2544-2.9184-5.8368-2.9184-14.4896-5.7856-23.1936z m-144.896 55.04h-34.816l17.408 40.6016h46.336c17.408 0 23.1936-31.8976 23.1936-31.8976V383.1808H226.5088v226.048z m234.7008-66.6624l43.52-86.9376h-43.52l26.112-72.448h-49.2544L400.384 478.7712c-2.9184 8.704 2.8672 17.408 11.5712 17.408h26.112l-28.9792 66.6624c-2.9184 8.704 2.8672 17.408 11.5712 17.408h63.744l14.4896-37.7344H461.312z m-60.8256 60.8768l-26.112 46.3872h81.152l20.3264-46.3872H400.384z m208.64-153.6h26.112V397.6192h-115.9168v49.3056h34.7648v153.6h-46.3872l-23.1936 49.2544h168.0896v-46.3872h-43.4688v-153.6z m237.6704 46.3872h-11.6224v-46.3872c2.9184-26.112-20.2752-49.2544-46.336-49.2544h-34.816V377.344h-49.2544v23.1936h-34.7648v46.336h34.816v46.3872h-49.3056v46.3872h49.2544v110.08h49.2544v-107.2128h92.7744v69.5808h-49.2544l17.408 40.5504h40.5504a38.4 38.4 0 0 0 37.632-37.6832v-69.5296c2.9184-28.9792-17.408-49.2544-46.336-49.2544z m-57.9584 0h-34.816v-49.3056h34.816v49.3056zM896 423.7312a24.9344 24.9344 0 0 0-23.1936-23.1936 24.9344 24.9344 0 0 0-23.1936 23.1936v23.1424h23.1936a24.9344 24.9344 0 0 0 23.1936-23.1424z" fill="#FFFFFF" p-id="10742"></path></svg>