<?xml version="1.0" standalone="no"?><!DOCTYPE svg PUBLIC "-//W3C//DTD SVG 1.1//EN" "http://www.w3.org/Graphics/SVG/1.1/DTD/svg11.dtd"><svg t="1628851757330" class="icon" viewBox="0 0 1024 1024" version="1.1" xmlns="http://www.w3.org/2000/svg" p-id="7755" xmlns:xlink="http://www.w3.org/1999/xlink" width="32" height="32"><defs><style type="text/css"></style></defs><path d="M63.999939 64.0004C6.399994 121.600345 0 169.6003 0 511.999974s6.399994 390.399629 63.999939 447.999575S169.599839 1023.999488 511.999514 1023.999488c515.199511 0 511.999514 3.199997 511.999513-511.999514S1027.199024 0.000461 511.999514 0.000461C169.599839 0.000461 121.599884 6.400455 63.999939 64.0004z m287.999727 95.999909c0 15.999985 51.199951 31.99997 111.999893 31.999969s111.999894-15.999985 111.999894-31.999969c0-19.199982 28.799973-31.99997 63.999939-31.99997s63.999939 12.799988 63.999939 31.99997c0 15.999985 44.799957 31.99997 95.999909 31.999969 54.399948 0 95.999909 12.799988 95.999909 31.99997 0 15.999985-22.399979 31.99997-47.999955 31.99997s-47.999954 12.799988-47.999954 31.999969c0 15.999985 15.999985 31.99997 31.99997 31.99997 19.199982 0 31.99997 105.5999 31.999969 252.79976 0 262.399751-35.199967 339.199678-147.19986 316.799699-79.999924-15.999985-89.599915-79.999924-12.799988-99.199906 54.399948-12.799988 63.999939-41.59996 63.999939-195.199815v-179.199829l-214.399796 6.399994-217.599793 6.399993 185.599823 9.599991 185.599824 12.799988-9.599991 150.399857-9.599991 150.399857-182.399826 9.599991-185.599824 9.599991V607.999883c0-86.399918-12.799988-159.999848-31.99997-159.999848S255.999757 543.999944 255.999757 671.999822c0 179.19983-9.599991 223.999787-47.999955 223.999788s-47.999954-47.999954-47.999954-239.999772c0-137.599869 12.799988-239.999772 31.99997-239.999772s31.99997-15.999985 31.999969-31.99997c0-19.199982-22.399979-31.99997-47.999954-31.99997-63.999939 0-60.799942-51.199951 9.599991-143.999863 54.399948-76.799927 166.399842-108.799897 166.399842-47.999954z" fill="#E45B43" p-id="7756"></path><path d="M275.199739 284.80019c-9.599991 15.999985 3.199997 35.199967 28.799972 44.799958 28.799973 12.799988 38.399964 3.199997 25.599976-28.799973-19.199982-51.199951-31.99997-54.399948-54.399948-15.999985zM431.99959 288.000187c9.599991 15.999985 25.599976 31.99997 35.199966 31.99997 6.399994 0 12.799988-15.999985 12.799988-31.99997 0-19.199982-15.999985-31.99997-35.199967-31.999969-15.999985 0-22.399979 12.799988-12.799987 31.999969zM623.999407 288.000187c-9.599991 15.999985 3.199997 31.99997 28.799973 31.99997 28.799973 0 51.199951-15.999985 51.199951-31.99997 0-19.199982-12.799988-31.99997-28.799972-31.999969-19.199982 0-41.59996 12.799988-51.199952 31.999969zM447.999574 543.999944c0 15.999985 28.799973 31.99997 63.99994 31.99997s63.999939-15.999985 63.999939-31.99997c0-19.199982-28.799973-31.99997-63.999939-31.99997s-63.999939 12.799988-63.99994 31.99997zM447.999574 671.999822c0 15.999985 28.799973 31.99997 63.99994 31.99997s63.999939-15.999985 63.999939-31.99997c0-19.199982-28.799973-31.99997-63.999939-31.999969s-63.999939 12.799988-63.99994 31.999969z" fill="#E45B43" p-id="7757"></path></svg>